<?xml version="1.0" encoding="utf-8"?>
<!-- Generator: Adobe Illustrator 26.1.0, SVG Export Plug-In . SVG Version: 6.00 Build 0)  -->
<svg version="1.1" id="Слой_1" xmlns="http://www.w3.org/2000/svg" xmlns:xlink="http://www.w3.org/1999/xlink" x="0px" y="0px"
	 viewBox="0 0 245.97 271.79" style="enable-background:new 0 0 245.97 271.79;" xml:space="preserve">
<style type="text/css">
	.st0{fill-rule:evenodd;clip-rule:evenodd;fill:#513D49;}
	.st1{fill-rule:evenodd;clip-rule:evenodd;fill:#6CC4C7;}
	.st2{fill-rule:evenodd;clip-rule:evenodd;fill:#FCE1C8;}
	.st3{fill-rule:evenodd;clip-rule:evenodd;fill:#FCE1C8;stroke:#FBCB9A;stroke-width:0.5669;stroke-miterlimit:10;}
	.st4{fill-rule:evenodd;clip-rule:evenodd;fill:#C4E3DF;}
	.st5{fill-rule:evenodd;clip-rule:evenodd;fill:#C2E2DF;}
</style>
<g>
	<path class="st0" d="M90.65,153.21c4.42,1.96,13.29,6.6,18.14,9.04l13.69,6.72c2.27,1.08,3.15,1.11,5.44,0.09
		c1.47-0.65,2.89-1.56,4.17-2.55c0.74-0.54,1.25-0.85,1.9-1.47c3.2-3.06,1.36-0.77,4.76-5.3c1.02-1.39,1.93-2.58,2.98-3.97
		c7.11-9.47,16.19-21.32,23.78-30.7l18.26-22.56c0.6-0.74,17.55-21.4,18.79-22.25c2.41,10.37,5.58,22.31,7.74,32.6l9.16,41.24
		c1.73,7.46,3.63,17.55,5.13,25.11l4.88,25.34c0.57,2.83,1.02,5.9,1.67,8.67l-57.37,6.24c-2.66,0.23-5.56,0.71-8.19,0.94
		c-10.46,0.88-22.08,2.58-32.88,3.6c-8.19,0.79-16.64,2.01-24.66,2.69l-16.19,1.81c-2.89,0.37-5.33,0.51-8.25,0.88l-35.66,3.83
		c-1.08-0.11-1.05,0.37-2.35,0.4c-0.23,0-0.96-0.06-0.99-0.06l-2.35,0.31c-0.6,0.14-1.33,0.37-1.9,0.31
		c-0.91-0.06,0.23-0.09-0.54-0.09l-0.74,0.17c-0.82,0.17-1.5,0.03-2.32,0.11c-1.47,0.11-2.44,0.26-3.15-0.99
		c-0.94-1.62-1.19-9.47-1.47-12.19c-0.57-5.41-1.19-11-1.64-16.58l-3.34-33.14l-5.5-55.42c1.19,0.48,2.98,1.56,4.17,2.27
		c1.5,0.85,2.81,1.53,4.28,2.41l43.14,23.36c2.89,1.56,5.67,2.98,8.65,4.54C83.68,149.56,89.49,152.19,90.65,153.21L90.65,153.21z
		 M144.23,57.69L144,57.94v0.48l-0.23,0.23v0.26l-0.26,0.48v0.23l-0.23,0.26v0.23l-0.26,0.48v0.26l-0.23,0.45v0.26l-0.26,0.48
		l-0.23,0.48v0.23l-0.26,0.48c0,1.13,0.03,0.45-0.23,0.74c0,1.13,0,0.45-0.26,0.71l-0.23,0.48c0,1.13,0,0.45-0.23,0.71
		c-0.09,0.85-0.06,0.71-0.48,1.22c0,1.13,0,0.45-0.26,0.71c-0.06,0.85-0.06,0.71-0.48,1.19c-0.06,0.85-0.06,0.71-0.48,1.22
		c0,1.13,0,0.45-0.23,0.71c-0.09,0.85-0.06,0.71-0.48,1.19c-0.09,0.85-0.06,0.71-0.48,1.22c0,1.13,0,0.45-0.26,0.71
		c-0.06,0.85-0.03,0.71-0.45,1.22c-0.09,0.82-0.06,0.68-0.48,1.19c0,1.13,0,0.45-0.26,0.71l-0.23,0.48c0,1.13,0,0.45-0.26,0.74
		l-0.23,0.48c0,1.13,0,0.45-0.26,0.71l-0.23,0.48v0.23l-0.26,0.48l-0.23,0.48v0.26l-0.26,0.48l-0.23,0.48v0.23l-0.26,0.48v0.23
		l-0.23,0.26v0.23l-0.26,0.48v0.26l-0.23,0.23v0.26l-0.26,0.48v0.23l-0.23,0.26l-3.4,8.56c-1.08,2.61-2.64,5.9-3.49,8.48
		c-1.39-0.43-11.37-7.14-13.44-8.48c-6.8-4.39-29.42-19.87-34.53-25.48l-2.58-2.83C80.7,67.63,94,79.09,102.53,83.34
		c3.32,1.64,12.08,6.72,15.53,5.78c3.26-0.85,7.4-4.2,9.64-6.66c0.74-0.82,1.53-2.01,2.21-3.09c2.47-3.88,4.93-10.37,6.72-15.14
		c2.78-7.4,13.97-42.66,17.94-47.31c1.36,2.27-0.65,8.59-1.33,10.89c-1.02,3.34-1.87,6.8-2.81,10.18
		c-0.94,3.43-1.79,6.69-2.89,10.03L144.23,57.69z M86.4,13.55l13.1,5.87c8.45,4.25,16.92,8.02,25.43,12.47
		c1.87,0.99,11.37,5.75,12.27,6.6c-1.13,4.17-12.73,37.64-14.88,41.67c-0.48,0.88-0.14,0.6-0.88,0.82l-0.23-0.26h-0.26l-0.23-0.23
		h-0.26c-4.08-0.96-13.38-6.69-17.12-9.5c-6.66-5.02-16.24-12.47-24.09-13.61c-3.37-0.45-6.58,0.26-9.01,1.42
		c-0.62,0.34-0.96,0.6-1.67,0.96c-1.28,0.62-3.97,2.47-4.73,3.43c-2.13,2.69-2.24,4.39-0.28,7.51c1.64,2.61,5.58,6.01,8.08,7.99
		c5.98,4.73,9.67,7.23,15.53,11.59c1.05,0.77,2.07,1.36,3.12,2.15c1.11,0.82,2.1,1.47,3.26,2.24l12.78,8.76
		c1.39,0.43,7.77,4.99,9.55,6.12c6.12,3.94,6.46,5.33,10.43,2.92c4.59-2.78,5.5-4.17,7.29-8.33c4.56-10.89,9.3-22.11,13.55-33.02
		c2.35-6.04,6.63-16.67,8.42-22.51c3.17,1.22,32.12,19.25,35.35,21.43c1.76,1.16,3.77,2.55,5.7,3.66c2.15,1.28,4.2,2.13,5.16,4.14
		c-0.71,0.45-2.18,0.85-3.26,1.47c-6.49,3.6-7.63,5.92-12.27,11.23l-8.53,10.2c-8.22,9.55-17.23,21-25.17,30.95l-12.33,15.76
		c-1.42,1.79-2.61,3.46-4.08,5.3c-0.74,0.94-1.36,1.73-2.1,2.69c-0.62,0.82-1.19,1.79-2.01,2.52c-2.61-0.94-24.09-11.88-26.82-13.27
		l-26.22-13.61l-13.01-6.92c-1.02-0.62-2.1-1.13-3.09-1.7c-0.54-0.31-0.99-0.48-1.59-0.82l-4.96-2.72
		c-0.74-0.34-0.88-0.51-1.53-0.88l-27.21-15.25c-2.1-1.22-4.17-2.41-6.24-3.6c-1.16-0.71-1.9-1.36-3.91-0.85
		c-2.27,0.6-4.56,2.15-6.43,3.43c-1.39,0.91-4.71,3.51-4.76,5.3c-0.03,0.88,0.2,1.08,0.26,2.18l1.13,11.34
		c0.4,3.17,0.43,6.04,0.88,9.18l1.36,13.78c0.11,1.3,0.43,3.23,0.48,4.56c1.53,16.02,3.46,32,4.79,47.99
		c0.99,11.76,2.66,24.35,3.6,36.03l1.42,11.85c2.38,0.2,7.23-0.6,9.78-0.88l28.94-3.2c5.98-0.68,113.07-12.73,115.85-12.64
		c0.48-0.23,8.39-1.02,9.61-1.13l44.33-4.85c5.36-0.6,7.54-0.96,12.33-3.97c2.27-1.45,5.33-3.26,4.93-5.95l-3.4-18.48
		c-2.38-11.85-4.51-24.89-7.17-36.48l-3.86-18.26c-2.72-11.85-4.96-23.78-7.97-35.72c-0.37-1.45-0.74-3-0.99-4.28l-5.3-22.05
		c-0.82-3.29-0.45-6.38-2.61-8.42l-23.36-14.8c-1.19-0.71-2.18-1.36-3.43-2.1c-1.16-0.71-2.24-1.3-3.29-2.01
		c-3.91-2.58-20.86-12.25-24.49-14.14c0.82-1.7,3.91-15.73,4.39-18.2c0.23-1.08,0.62-2.55,0.68-3.88c0.09-2.86-0.74-4.82-3.97-5.16
		c-6.38-0.65-16.84,11-18.37,17.63c-1.45-0.11-5.64-2.69-7.11-3.43c-2.44-1.22-4.71-2.35-7.06-3.54c-1.19-0.6-2.27-1.11-3.51-1.76
		c-1.25-0.62-2.32-1.05-3.6-1.67l-10.71-5.13c-4.82-2.41-13.24-6.01-18.23-8.16c-2.95-1.28-4.62-2.18-8.25-0.23
		c-4.71,2.52-8.93,7.4-12.19,11.57c-0.43,0.54-0.74,0.99-1.16,1.47c-7.65,9.07-17.57,21.54-24.66,30.81
		c-0.43,0.57-0.77,0.94-1.28,1.62L24.55,73.64c-1.08,1.98,2.13,0.77,2.89,0.45c2.52-1.08,4.59-2.32,6.75-3.83
		c2.04-1.39,3.51-3.57,5.02-5.56c1.56-2.07,2.98-3.97,4.51-6.01c10.94-14.6,21.2-27.47,32.4-41.53l4.76-6.04
		c1.25,0.28,1.64,0.62,2.75,1.11L86.4,13.55z"/>
	<path class="st1" d="M174.73,227.31c-2.78-0.09-109.87,11.96-115.85,12.64l-28.94,3.2c-2.55,0.28-7.4,1.08-9.78,0.88l-1.42-11.85
		c-0.94-11.68-2.61-24.26-3.6-36.03c-1.33-15.99-3.26-31.97-4.79-47.99c-1.87,1.19-3.88,4.59-5.22,6.58
		c-0.91,1.39-1.42,1.98-2.1,3.66c-2.18,5.27-2.58,9.41-2.55,15.22c0.03,1.98-0.23,3.32-0.23,5.53v53.04c0,3.37-0.2,9.44-0.26,15.28
		v7.14c0.06,2.61,0.14,4.82,0.34,6.26c0.54,3.8,1.08,4.96,4.03,7.74c2.61,2.41,5.39,2.69,9.07,2.69c2.13-0.03,3.49,0.23,5.75,0.23
		c4.14,0,7.57,0.26,11.54,0.26c8.02,0,15.42-0.26,23.27-0.26c3.91,0,7.4-0.23,11.54-0.23c10.91,0,23.64-0.74,34.55-0.74
		c7.8,0,15.25-0.23,23.27-0.23c2.15,0,3.66-0.26,5.53-0.26h17.74c2.15,0.03,3.34-0.23,5.53-0.23c9.27,0.03,16.92,0.62,25.77-3.77
		c3-1.47,4-2.78,5.9-5.84c1.42-2.27,2.66-6.04,2.66-9.1c-0.03-1.84,0.17-3.91-0.14-5.64c-0.34-1.87-0.68-3.12-1.16-4.82
		c-0.79-2.75-2.07-5.87-3.91-7.85c-0.57-0.6-0.71-0.94-1.33-1.56C178.16,229.44,176.77,228.67,174.73,227.31L174.73,227.31z"/>
	<path class="st2" d="M106.33,103.46c-1.76,0.74-6.69,4.22-8.25,5.53c-0.77,0.65-1.05,0.82-1.79,1.56c-2.13,2.18-3.91,3.26-6.8,6.86
		l-3.15,3.6c-0.6,0.65-1.16,1.16-1.81,1.79c-1.59,1.59-5.41,6.43-5.56,8.33l26.22,13.61c2.72,1.39,24.21,12.33,26.82,13.27
		c0.82-0.74,1.39-1.7,2.01-2.52c0.74-0.96,1.36-1.76,2.1-2.69c1.47-1.84,2.66-3.51,4.08-5.3l12.33-15.76
		c7.94-9.95,16.95-21.4,25.17-30.95l8.53-10.2c4.65-5.3,5.78-7.63,12.27-11.23c1.08-0.62,2.55-1.02,3.26-1.47
		c-0.96-2.01-3-2.86-5.16-4.14c-1.93-1.11-3.94-2.49-5.7-3.66c-3.23-2.18-32.17-20.21-35.35-21.43c-1.79,5.84-6.07,16.47-8.42,22.51
		c-4.25,10.91-8.99,22.14-13.55,33.02c-1.79,4.17-2.69,5.56-7.29,8.33c-3.97,2.41-4.31,1.02-10.43-2.92
		C114.09,108.45,107.72,103.89,106.33,103.46L106.33,103.46z"/>
	<path class="st2" d="M27.13,171.47l0.74,1.64c2.1,5.3,1.67,6.58,4.71,12.1l3.51,6.09c3.32,5.5,6.89,12.98,11.25,17.52l2.3,2.52
		c0.45,0.45,0.71,0.77,1.19,1.22l3.91,3.29c1.87,1.33,0.99,0.91,3.12,1.81c1.81-0.88,12.61-7.48,13.35-8.53l0.31-0.26l3.17-6.18
		c5.13-8.45,5.36-10.12,7.46-20.64c1.45-7.29,9.1-24.38,8.5-28.86c-1.16-1.02-6.97-3.66-8.79-4.59c-2.98-1.56-5.75-2.98-8.65-4.54
		l-43.14-23.36c-1.47-0.88-2.78-1.56-4.28-2.41c-1.19-0.71-2.98-1.79-4.17-2.27L27.13,171.47z"/>
	<path class="st2" d="M113.75,185.39l-0.23,0.23l-11.17,9.01c-10.32,8.08-18.99,13.58-30.1,20.27l-6.58,3.86
		c7.06,0,15.51,0.85,21.12,3.66c5.36,2.69,5.78,2.78,12.16,1.67l8.08-1.76c1.42-0.23,2.98-0.43,4.37-0.68
		c3.69-0.62,7.26-0.54,9.21-0.85c1.16-0.17,3.57-0.37,4.65-0.37c6.83-0.09,12.81,0.09,19.7-0.26c8.14-0.37,19.45-4.03,25.91-4.08
		c2.89-0.03,6.35-0.45,9.16-0.71l9.81-0.23c11.14,0,13.92-4.11,15.62-4.56c-0.23-2.49-8.36-4.88-10.12-5.5
		c-1.98-0.71-3.63-1.5-5.64-2.3l-27.13-12.44c-3.63-1.81-6.94-3.49-10.57-5.3c-1.87-0.94-3.32-1.76-5.19-2.72l-6.18-1.73
		c-4.82-0.54-9.72,1.36-13.58,2.24l-9.89,1.84C116.11,184.9,114.89,185.36,113.75,185.39L113.75,185.39z"/>
	<path class="st3" d="M120.47,80.5h0.26l0.23,0.23h0.26l0.23,0.26c0.74-0.23,0.4,0.06,0.88-0.82c2.15-4.03,13.75-37.5,14.88-41.67
		c-0.91-0.85-10.4-5.61-12.27-6.6c-8.5-4.45-16.98-8.22-25.43-12.47l-13.1-5.87c-2.01-0.03-4.31-0.34-6.07,1.36
		c-1.3,1.25-2.47,2.44-2.89,4.56c-1.36,7.03,1.98,10.69,7.51,14l9.07,5.78c5.41,3.66,14.09,8.31,18.45,11.57
		c0.77,0.57,1.22,1.13,2.04,1.79c0.77,0.6,2.61,3.4,3.09,4.37c1.28,2.61,2.66,5.3,2.64,8.65c0,2.38,0.23,4.51,0.23,7.2
		C120.47,75.37,120.47,77.95,120.47,80.5L120.47,80.5z"/>
	<path class="st4" d="M133.2,86.03l0.23-0.26v-0.23l0.26-0.48v-0.26l0.23-0.23v-0.26l0.26-0.48v-0.23l0.23-0.26v-0.23l0.26-0.48
		v-0.23l0.23-0.48l0.26-0.48v-0.26l0.23-0.48l0.26-0.48v-0.23l0.23-0.48c0-1.13,0-0.45,0.26-0.71l0.23-0.48c0-1.16,0-0.45,0.26-0.74
		l0.23-0.48c0-1.13,0-0.45,0.26-0.71c0.06-0.85,0.03-0.71,0.48-1.19c0.06-0.85,0.03-0.71,0.45-1.22c0-1.13,0-0.45,0.26-0.71
		c0.06-0.85,0.06-0.71,0.48-1.22c0.06-0.82,0.06-0.68,0.48-1.19c0-1.13,0-0.45,0.23-0.71c0.09-0.85,0.06-0.71,0.48-1.22
		c0.09-0.82,0.06-0.71,0.48-1.19c0-1.13,0-0.45,0.26-0.71c0.06-0.85,0.03-0.71,0.48-1.22c0-1.13-0.03-0.45,0.23-0.71l0.23-0.48
		c0-1.13,0-0.45,0.26-0.71c0-1.16,0-0.45,0.23-0.74l0.26-0.48V62.5l0.23-0.48l0.26-0.48v-0.26l0.23-0.45v-0.26l0.26-0.48v-0.23
		l0.23-0.26v-0.23l0.26-0.48v-0.26l0.23-0.23v-0.48l0.23-0.26l3.32-9.67c1.11-3.34,1.96-6.6,2.89-10.03
		c0.94-3.37,1.79-6.83,2.81-10.18c0.68-2.3,2.69-8.62,1.33-10.89c-3.97,4.65-15.17,39.91-17.94,47.31
		c-1.79,4.76-4.25,11.25-6.72,15.14c-0.68,1.08-1.47,2.27-2.21,3.09c-2.24,2.47-6.38,5.81-9.64,6.66
		c-3.46,0.94-12.22-4.14-15.53-5.78C94,79.09,80.7,67.63,75.77,66.27l2.58,2.83c5.1,5.61,27.72,21.09,34.53,25.48
		c2.07,1.33,12.05,8.05,13.44,8.48c0.85-2.58,2.41-5.87,3.49-8.48L133.2,86.03z"/>
	<path class="st0" d="M71.52,208.89c0,0.37,0.09,0.26-0.31,0.26c-0.74,1.05-11.54,7.65-13.35,8.53c-2.66,2.01-9.3,5.13-12.39,6.92
		c-0.85,0.48-1.33,0.54-1.53,1.36c4.65,0,12.78-2.69,16.87-4.73c1.45-0.74,3.4-2.07,4.88-2.47l6.58-3.86
		c11.11-6.69,19.79-12.19,30.1-20.27l11.17-9.01l0.23-0.23c0.43-0.65,0.88-1.08,1.56-1.59c0.71-0.54,1.33-0.85,1.56-1.79
		c-3.23,0-14.49,2.38-17.32,4.99l-12.19,10.37c-1.73,1.33-3.32,2.61-5.13,3.97s-3.43,2.66-5.24,3.91
		C75.86,206.02,72.57,208.6,71.52,208.89L71.52,208.89z"/>
	<path class="st0" d="M209.99,203.13c-1.11-2.1-3.83-4.93-5.56-6.66l-6.41-5.84c-3-2.38-5.19-2.55-8.65-3.6
		c-7.54-2.35-15-5.05-22.11-8.62c-8.96-4.48-10.23-5.56-17.52-10.32c-3.74-2.44-1.64,0.65,0.31,2.58c1.11,1.11,2.01,2.01,3.12,3.12
		c4.62,4.62,8.7,7.06,13.95,10.52l7.82,4.68c7.54,4.05,12.61,6.6,20.75,9.72c1.62,0.62,2.98,1.02,4.59,1.64
		C201.88,200.98,208.37,203.13,209.99,203.13L209.99,203.13z"/>
	<path class="st5" d="M46.8,233.15c0.26,0.23,0.88-0.37,0.28-0.14C47.08,233.01,46.4,232.72,46.8,233.15L46.8,233.15z"/>
	<path class="st5" d="M41.53,233.63c0,0.6,0.37,0.06,0.14,0C41.67,233.6,41.53,232.92,41.53,233.63L41.53,233.63z"/>
	<path class="st5" d="M47.99,232.67l0.09-0.09C48.08,232.58,47.99,232.64,47.99,232.67L47.99,232.67z"/>
	<path class="st5" d="M42.24,233.38l0.09-0.06C42.32,233.32,42.21,233.35,42.24,233.38L42.24,233.38z"/>
	<path class="st5" d="M49.92,232.89l0.09-0.06C50,232.84,49.89,232.87,49.92,232.89L49.92,232.89z"/>
	<path class="st5" d="M40.56,233.63l0.06-0.09C40.62,233.55,40.54,233.6,40.56,233.63L40.56,233.63z"/>
	<path class="st5" d="M44.65,233.15l0.06-0.09C44.7,233.06,44.62,233.12,44.65,233.15L44.65,233.15z"/>
</g>
</svg>
