<?xml version="1.0" encoding="utf-8"?>
<!-- Generator: Adobe Illustrator 26.1.0, SVG Export Plug-In . SVG Version: 6.00 Build 0)  -->
<svg version="1.1" id="Слой_1" xmlns="http://www.w3.org/2000/svg" xmlns:xlink="http://www.w3.org/1999/xlink" x="0px" y="0px"
	 viewBox="0 0 420.75 178.17" style="enable-background:new 0 0 420.75 178.17;" xml:space="preserve">
<style type="text/css">
	.st0{fill-rule:evenodd;clip-rule:evenodd;fill:#FCE1C8;}
	.st1{fill-rule:evenodd;clip-rule:evenodd;fill:#513D49;}
	.st2{fill-rule:evenodd;clip-rule:evenodd;fill:#6CC4C7;}
	.st3{fill-rule:evenodd;clip-rule:evenodd;fill:#FEE6CA;}
	.st4{fill-rule:evenodd;clip-rule:evenodd;fill:#F6F1E7;}
</style>
<g>
	<path class="st0" d="M163.25,120.19c2.55-0.31,4.9-0.96,7.26-1.59c-1.87,6.32-9.78,15.17-14.74,19.25
		c-6.29,5.16-14.06,9.16-22.11,11.76c-2.52,0.82-14.49,3.91-17.23,3.83c-1.05-0.03-0.45,0.09-0.91-0.26
		c-1.47-0.31-0.65-0.11-1.9,0.37l-5.02,1.47c-5.98,1.9-9.67,1.45-7.06,8.59c1.22,3.32,2.27,3.74,3.15,5.19h-1.02
		c0.06,0.03,0.14,0,0.17,0.09c0.03,0.09,0.14,0.09,0.2,0.11c1.64,0.62-1.3-0.37,0.4,0.14c0.23,0.06,0.77,0.14,1.02,0.2
		c16.95,2.89,36.85,5.39,53.94,5.5l8.7-0.28c-2.01-0.54-9.18-0.17-11.76-0.17c1.47,0.31,8.96-2.41,10.54-3.06
		c5.58-2.27,14.23-5.73,18.34-9.52l6.58-7.34c1.67-2.27,3.29-6.77,4.51-9.41l3.71-10.2c2.81-8.31,3.49-9.07,3.2-17.57
		c-0.17-5.3,3.43-16.27-1.53-24.32c-3.2-5.19-2.72-7.57-10.03-10.83c-4.42-1.98-4.96-2.04-7.68-0.28
		c-6.01,3.88-5.36,19.53-11.28,26.87c-1.11,1.36-1.84,2.47-2.92,4.03l-4.71,5.64c-0.34,0.34-0.48,0.51-0.82,0.82
		c-0.23,0.2-0.34,0.31-0.54,0.48L163.25,120.19z"/>
	<path class="st1" d="M126.79,75.8c-1.73-0.82-5.33-4.56-6.77-6.04c-5.39-5.56-12.53-16.21-14.06-23.78
		c-1.33-2.89-2.24-10.23-2.3-13.92c-0.14-12.67,4.71-21.66,15.65-27.1c0.91-0.45,2.83-1.73,4-1.28c-1.13,0.74-2.15,0.68-3.06,1.22
		c6.52,0.34,10.57,0.77,15.28,3.77c8.22,5.24,13.46,21.32,16.04,30.95c1.84,6.94,2.41,15.05,8.62,19.73
		c19.05,14.34,27.58-5.16,40.34,14.14c10.4,15.79,10.43,43.29,5.22,63.47c-3.66,14.09-10.46,27.24-22.34,34.3
		c-1.56,0.91-4.39,2.72-6.35,2.95c-2.04,0.26-7.23,0.88-8.96,0.34l-8.7,0.28c-17.09-0.11-36.99-2.61-53.94-5.5
		c-0.26-0.06-0.79-0.14-1.02-0.2c-1.7-0.51,1.25,0.48-0.4-0.14c-0.06-0.03-0.17-0.03-0.2-0.11c-0.03-0.09-0.11-0.06-0.17-0.09
		c-2.41,0.45-9.24-2.24-12.05-1.67c-3.46,0.65-7,2.89-10.6,3.29c2.75,1.13,12.13,2.3,15.76,2.98c15.76,2.89,35.91,4.62,51.82,4.76
		c10.06,0.09,16.36-0.06,25.88-2.38c2.49-0.6,5.36-0.91,7.57-1.79c5.1-2.07,7.82-2.3,13.24-5.73c7.43-4.68,13.89-11.79,17.74-19.93
		c7.14-15.08,9.38-30.36,8.22-47.65c-0.91-13.18-4.73-33.48-17.49-39.06c-6.63-2.95-9.64,0.6-16.04,0.23
		c-5.53-0.34-10.4-2.44-13.97-5.02c-3.51-2.58-5.92-5.84-7.57-11.37c-1.5-4.99-2.21-10.12-3.88-15.11
		c-1.56-4.73-2.95-9.47-5.1-13.61c-5.02-9.81-10.26-14.74-22.51-15.28c-7.91-0.34-24.49,4.42-29.99,7.8
		c-4.37,2.69-6.94,5.02-9.61,9.35c-8.11,13.1-2.61,32.68,4.39,43.85c1.42,2.27,4.31,6.38,6.18,8.22c3.77,3.8,6.66,8.16,12.39,10.89
		c5.5,2.61,10.29,1.5,16.24,0.48c4.51-0.79,5.22-1.84,6.97-2.38c1.5-0.45,4.71-1.5,6.07-2.32c0.06-0.03,0.11-0.09,0.17-0.11
		l0.28-0.2c0.03-0.09,0.09-0.09,0.14-0.11c-2.04,0.37-3.74,0.85-6.04,1.16c-1.02,0.17-2.13,0.34-3.06,0.6
		c-0.96,0.28-1.64,0.74-2.38,0.96C133.71,80.5,127.84,77.07,126.79,75.8L126.79,75.8z"/>
	<path class="st1" d="M397.16,133.4c0.4,2.3-0.11,6.75-0.85,9.33c-1.08,3.8-3.71,7.2-6.75,9.13c-1.02,0.62-2.21,1.33-3.51,1.73
		c-7.31,2.3-40.39,7.63-46.29,6.55c-1.25,0.79-23.53,0.23-27.01,0.23c-8.84,0-18.28,0.09-27.01,0.62
		c-6.24-0.03-12.53,0.28-18.82,0.28c-12.16,0-24.21-0.62-36.23-1.76c-4.2-0.37-4.62-0.68-8.45,0.68l-6.86,2.41
		c-0.06-0.06-0.14,0.06-0.2,0.11c11.34,0.71,22.11,1.47,33.73,1.67c11.68,0.17,23.44-0.23,35.04-0.26
		c11.71-0.06,23.27-0.31,35.04-0.31c21.86,0,41.33-2.98,62.25-8.33c9.98-2.58,19.9-3.88,24.77-10.49c5.75-7.77,4.25-19.53,0.34-28.2
		c-1.84-4.08-4.42-7.74-6.8-10.94c-10.71-14.51-20.52-24.77-29.65-40.9c-3-5.3-2.64-7.82-0.26-13.44
		c3.49-8.25,7.88-15.82,11.82-23.47c1.98-3.86,3.97-8.33,4.42-13.32c0.45-4.88-0.88-11.25-3.66-13.72
		c-2.01-1.79-4.37-0.71-6.94-0.23c-11.51,2.21-10.18,3.29-15.48,10.91c-3.09,4.42-6.77,8.39-10.66,11.65
		c-6.86,5.73-9.89,7.11-16.72,14c-7.34,7.43-6.15,17.38-0.2,25.2c0.96,1.28,1.25,1.02,3.09,0.51l9.89-3.15
		c-0.62-1.11-1.59-2.18-2.32-3.49c-2.3-4-3.74-8.73-2.83-13.63c1.96-10.83,20.27-19.84,27.5-28.4c0.94-1.08,1.59-1.73,2.52-3
		c0.77-1.05,1.33-2.27,2.13-3.2c1.13,2.3,1.59,7.6,1.3,10.46c-0.37,3.29-1.47,6.35-2.69,9.07c-2.89,6.46-8.36,15.68-11.85,23.22
		c-1.13,2.44-2.89,5.53-3.54,8.22c-0.91,3.57,0.43,6.49,1.9,9.01c7.14,12.05,15.73,23.02,24.49,33.85
		C387.24,108.76,396.74,120.53,397.16,133.4L397.16,133.4z"/>
	<path class="st2" d="M46.26,153.07c5.73-2.64,10.01-10.52,13.35-15.82c1.93-3.03,3.51-6.32,5.39-9.27c2.95-4.76,2.61-3.86,5.1-9.3
		c1.62-3.57,2.69-6.75,4-10.66c2.41-7.26,2.78-17.09-1.64-23.61c-3.12-4.59-7.91-5.27-8.33-5.78C62.5,79.2,33,96.24,30.27,97.82
		l-11.28,6.41c0.45,1.47,2.44,4.54,3.32,6.12c1.13,2.1,2.32,4.11,3.43,6.18c5.92,10.94,12.81,22.48,18.79,33.53l1.64,2.86
		C46.2,152.96,46.23,153.01,46.26,153.07L46.26,153.07z"/>
	<path class="st0" d="M285.73,160.98c8.73-0.54,18.17-0.62,27.01-0.62c3.49,0,25.77,0.57,27.01-0.23
		c-1.42-0.4-31.21-0.14-35.38-0.14c2.3,0.11,12.25-2.41,15.56-3.4c0.99-0.31,1.59-0.11,1.9-0.96c-3.54-0.96-7.51-1.16-11.31-1.79
		l-11.11-2.1l-20.35-6.04c-3.34-1.05-6.94-1.96-10.32-2.89c-3.51-1.02-6.72-2.24-10.01-3.2c-3.54-1.02-6.97-1.64-10.26-2.95
		l-4.96-1.76c-2.04-0.79-3.26-1.42-5.47-1.28c-1.67,0.17-3.46,0.82-4.9,1.19c-7.65,2.07-7.82,14.46-2.01,20.38
		c1.81,1.87,4.73,3.29,8.42,3.63c3.66,0.34,19.25,0.51,23.75,0.51C266.66,159.33,284.66,158.94,285.73,160.98L285.73,160.98z"/>
	<path class="st1" d="M331,109.81c-1.87-0.43-7.34-2.69-9.55-3.66c-1.08-0.48-2.32-0.85-2.92-1.47c-1.05-0.03-7.77-3.12-9.35-3.77
		c-41.27-17.06-54.77,0-77.5-5.84c-1.81-0.48-3.34-1.13-4.99-1.56c0.4,2.55-1.02,6.97-0.26,8.9c6.49,3.97,37.62-1.36,44.33-1.45
		c28.4-0.37,52.7,19.02,78.75,23.44c3.8,0.65,7.34,1.25,8.45-2.27c1.11-3.43,0.2-14.6-3.6-18.03c0.71,2.1-0.11,4-0.43,6.04
		c-0.51,3.63,1.08,3.12,1.45,5.07c-3.83,0.79-9.72-0.74-13.21-1.7C340.24,113.02,332.05,110.55,331,109.81L331,109.81z"/>
	<path class="st1" d="M14.77,115.43c1.02,0.71,4.76,7.8,5.75,9.44l16.53,28.43c3.6,4.82,1.08,4.73,5.75,6.63
		c1.56,0.62,2.98,1.16,4.51,1.73c1.33,0.48,3.2,1.39,4.62,1.64l-5.67-10.23c-0.03-0.06-0.06-0.11-0.09-0.14l-1.64-2.86
		c-5.98-11.06-12.87-22.59-18.79-33.53c-1.11-2.07-2.3-4.08-3.43-6.18c-0.88-1.59-2.86-4.65-3.32-6.12l11.28-6.41
		C33,96.24,62.5,79.2,64.12,78.63c0.26-0.48,4.68-2.95,5.56-3.17c0.51,1.45,11.11,20.15,12.33,22.45c2.13,4,4.45,7.26,6.55,11
		c1.05,1.9,5.39,10.12,6.32,11.03c-0.34-1.76-1.73-5.07-2.41-6.77c-2.72-6.8-4.93-12.05-8.25-18.65c-1.81-3.69-11-21.09-13.15-22.82
		c-0.82,0.17-42.58,23.95-47.82,27.01c-6.21,3.63-5.02,3.46-8.5,2.38c-2.47-0.77-7.17-2.44-9.61-2.81l4.85,8.56
		C10.91,108.42,14.57,114.26,14.77,115.43L14.77,115.43z"/>
	<path class="st0" d="M321.51,95.75c0.11,0.57,0.14,0.09-0.45,0.74c-3.26,3.54-2.07,7.48-2.52,8.19c0.6,0.62,1.84,0.99,2.92,1.47
		c2.21,0.96,7.68,3.23,9.55,3.66c0.26-0.31,0-0.14,0.62-0.14c4.28,0.03,8.48,1.22,12.25-2.81c0.82-0.88,1.5-1.08,2.27-1.81
		l5.92-6.32c2.64-3.66,4-7.37,1.79-12.7c-1.59-3.83-5.64-5.47-9.41-4.96c-1.53,0.2-1.05,0.2-1.42-0.14
		c-0.68,0.45-0.65,0.62-1.25,1.28l-5.33,5.95c-0.77,0.85-1.45,1.5-2.27,2.3C331.29,93.34,322.67,94.65,321.51,95.75L321.51,95.75z"
		/>
	<path class="st1" d="M385.37,25.34c1.45,2.75,6.86-0.2,8.84-0.85c3-0.94,7.51-0.28,10.29,0.51c8.48,2.49,5.22,8.96,0.62,13.52
		c-1.42,1.45-4.51,4.22-6.21,5.3c-2.64,1.64-5.81,0.17-15.11,7.94c-0.6,0.48-0.94,0.94-1.5,1.39c-0.6,0.48-0.94,0.79-1.5,1.36
		c-1.02,0.96-2.58,2.21-2.72,3.23c1.47,0.99,4.42,0.4,6.32-0.11c5.41-1.45,6.97-6.83,13.07-9.98c6.69-3.46,9.41-1.76,19.11-11.37
		c1.79-1.79,5.22-6.35,3.86-10.6c-1.08-3.4-6.07-4.73-10.06-5.27c-4.88-0.65-9.3-0.4-14,0.48C393.7,21.4,386.16,23.3,385.37,25.34
		L385.37,25.34z"/>
	<path class="st3" d="M126.79,75.8c0.48-0.37-0.85-0.57,2.27,0.28c0.85,0.23,1.62,0.51,2.49,0.6c6.12,0.77,11.03,0.09,16.44-2.49
		c0.79-0.37,3-2.1,3.12-3.03c0.11-1.22-1.93-3.06-2.72-3.6c-3.57-2.47-7.23-0.31-11.42-1.05c-3.49-0.6-12.13-2.58-14.51-4.71
		l-6.58-6.12c-1.13-1.13-2.1-2.1-3.26-3.26c-1.13-1.13-2.07-2.1-3.26-3.2c-1.25-1.16-2.04-2.32-3.4-3.23
		c1.53,7.57,8.67,18.23,14.06,23.78C121.46,71.23,125.06,74.98,126.79,75.8L126.79,75.8z"/>
	<path class="st1" d="M107.86,131.13c2.78-0.99,10.69-1.81,12.3-3.17c8.31-7.14,14.43-19.02,15.39-31.27
		c-2.32,0.6-11.23,1.93-12.19,2.78c-0.68,1.16-0.6,3.6-0.88,5.13c-0.28,1.62-0.71,3.26-1.16,4.82c-1.64,5.64-4.42,11.17-7.94,15.59
		C111.17,127.79,108.85,129.91,107.86,131.13L107.86,131.13z"/>
	<path class="st1" d="M321.51,95.75c1.16-1.11,9.78-2.41,12.67-5.3c0.82-0.79,1.5-1.45,2.27-2.3l5.33-5.95
		c0.6-0.65,0.57-0.82,1.25-1.28c0.54-1.11,3.09-3.26,2.98-4.37c-2.86-0.54-19.56,4.71-21.23,6.15l-9.75,11.14
		c-0.48,0.45-2.89,2.75-3.12,3.46C314.33,98.16,319.24,95.73,321.51,95.75L321.51,95.75z"/>
	<path class="st1" d="M163.25,120.19c-1.39,0.43-4.08,0.54-4.96,1.47l-1.96,3.74c-0.54,0.77,0.11,0.06-0.26,0.26
		c-0.94,2.98-5.24,8.11-6.92,10.15l-4.17,4.25c-4,3.37-10.29,8.05-15.51,9.69c-2.13,0.65-4.54,0.68-6.94,1.47
		c-2.15,0.71-4.59,1.73-6.83,2.07l-0.2-0.11c0.45,0.34-0.14,0.23,0.91,0.26c2.75,0.09,14.71-3,17.23-3.83
		c8.05-2.61,15.82-6.6,22.11-11.76c4.96-4.08,12.87-12.93,14.74-19.25C168.15,119.22,165.8,119.88,163.25,120.19L163.25,120.19z"/>
	<path class="st2" d="M37.05,153.3l-16.53-28.43c-0.99-1.64-4.73-8.73-5.75-9.44c0.71,3.77,2.44,7.88,3.29,11.88
		c0.88,4.03,2.13,7.74,3.09,11.82c1.13,4.82,1.93,7.46,4.79,10.32C29.25,152.76,33.42,152.59,37.05,153.3L37.05,153.3z"/>
	<path class="st1" d="M16.38,94.17c2.83-3.15,3.77-5.44,8.39-10.01c6.43-6.43,13.58-11.14,22.48-14.49c1.53-0.6,5.56-2.66,6.8-1.64
		c1.7,1.45,1.47,5.39,2.38,6.89c2.89-3.88,0.96-7.74-0.6-13.01c-2.3-0.03-10.97,3.71-13.04,4.76C32.8,71.69,25,78.46,18.6,87.33
		C16.78,89.83,16.98,90.68,16.38,94.17L16.38,94.17z"/>
	<path class="st1" d="M3.74,66.98c-1.08-0.14-2.58-0.26-3.74-0.2l4.31,25.09c1.59,0.48,3.6,0.65,5.67,0.6L7.71,78.63
		c0.99,0.94,1.84,3,2.69,3.77c1.08,0.99,3.91,0.37,5.47,0.71c-0.26-0.94-7.94-12.08-9.55-14.6C5.58,67.38,5.41,67.24,3.74,66.98
		L3.74,66.98z"/>
	<path class="st1" d="M92.38,145.27c2.1-1.25,4.22-2.35,6.29-3.54c1.25-0.74,5.36-3.83,4.05-4.99
		c-2.38-2.13-23.67,11.34-25.82,12.73c-6.63,4.25-16.53,11.54-22.03,16.7L92.38,145.27z"/>
	<path class="st4" d="M115.71,153.3c2.24-0.34,4.68-1.36,6.83-2.07c2.41-0.79,4.82-0.82,6.94-1.47c5.22-1.64,11.51-6.32,15.51-9.69
		l4.17-4.25c1.67-2.04,5.98-7.17,6.92-10.15c-2.1,1.96-4.59,2.38-5.58,3.34c-1.45,1.36-2.61,2.95-4.05,4.37l-4.48,4.14
		c-1.73,1.33-3.32,2.13-4.96,3.43c-0.91,0.71-1.45,1.3-2.32,1.98c-2.75,2.18-5.22,3.2-7.85,4.9
		C122.91,150.38,116.33,152.39,115.71,153.3L115.71,153.3z"/>
</g>
</svg>
