<svg width="983" height="142" viewBox="0 0 983 142" fill="none" xmlns="http://www.w3.org/2000/svg">
<path fill-rule="evenodd" clip-rule="evenodd" d="M913.817 39.0155C911.831 41.4762 911.646 42.503 911.646 45.491C912.118 49.0803 912.145 49.6076 915.074 53.1506C917.115 55.7686 917.799 56.7399 920.182 59.1266C922.038 60.986 937.068 72.3644 937.409 72.5772C940.735 70.0055 944.088 67.9056 947.487 65.6576C952.753 62.1701 959.089 55.9813 963.874 51.5502C982.33 33.169 965.001 19.4779 951.958 26.6657C944.651 30.6528 937.529 36.0552 931.036 41.0321C924.634 37.1283 920.108 33.687 913.817 39.0155Z" fill="#6CC4C7"/>
<path fill-rule="evenodd" clip-rule="evenodd" d="M80.2886 4.58414L82.1175 6.34178L77.5081 4.87091C69.0006 6.5268 62.2943 8.4602 53.5004 8.33069C43.1546 8.20118 37.8154 7.59988 27.6266 10.2456L26.7122 11.2724L25.6406 19.5889L25.8531 24.0755L37.7969 30.7083C41.1224 30.8933 41.2517 29.996 41.963 32.5399C47.5146 33.169 69.6656 49.9036 72.9172 54.7232C75.8731 49.4225 74.6446 40.144 77.425 35.1856C78.4503 44.0479 73.573 56.0091 72.9172 64.0017L75.0879 65.6576L76.6029 64.9268L77.6005 60.3107L74.9309 61.282L84.5377 21.0782C85.6092 17.2484 88.7499 12.7433 86.8378 8.72847C90.8191 9.30202 88.0664 10.1438 92.334 11.2724L92.3063 8.51571C89.4058 6.70256 90.1355 6.31403 86.8101 5.71273C84.667 8.9875 80.1315 31.3096 77.5635 35.3984C77.0093 30.6528 78.9214 28.0533 79.2355 23.3354C71.8549 20.7915 63.4951 21.9941 55.6711 22.0218C60.4653 21.7628 63.4489 20.5787 68.2893 20.6064C74.5245 20.6342 75.7253 22.5213 79.7805 23.0486C84.1036 17.3594 82.6071 11.0874 84.9349 4.85241L80.2886 4.58414Z" fill="#FCE1C8"/>
<path fill-rule="evenodd" clip-rule="evenodd" d="M263.187 41.948C270.235 42.2347 290.317 44.0201 290.548 52.6233C285.809 57.628 270.965 51.8093 263.187 51.7538C249.442 56.6012 264.97 68.4884 270.679 70.394C281.68 74.0388 283.722 62.7899 289.375 64.6031C292.202 73.123 289.458 72.605 296.155 89.2563C299.037 96.3609 303.176 104.594 311.212 106.537C322.759 106.537 348.189 56.0276 358.082 45.2505C360.964 42.1052 373.61 28.7009 373.425 25.7406C370.202 25.5279 366.146 31.8739 364.05 34.5474C361.666 37.6186 356.844 41.8647 353.944 44.7972C348.448 50.2736 338.314 60.0887 330.537 62.2071C319.276 53.6594 326.056 29.0617 312.866 17.9422C300.608 7.66466 280.424 26.7305 273.431 35.0654C276.471 34.6214 285.375 25.2041 289.403 22.7156C295.814 18.7841 304.848 16.4714 310.556 22.0866C321.188 32.6324 315.378 53.9462 326.241 64.6678C334.804 65.6669 338.471 61.7816 345.252 57.665C340.698 65.1396 334.074 73.4283 328.781 80.6346C324.301 86.7216 316.367 100.172 308.459 100.986C301.18 99.0159 293.744 80.4496 293.901 74.2423C296.885 76.5735 295.73 78.6179 299.139 79.4598C294.502 70.7548 292.701 60.4495 287.121 62.0499C282.641 65.4634 277.671 71.3561 271.178 68.9694C265.414 66.8417 260.416 62.3644 261.017 56.2496L263.243 55.4633C265.229 59.1359 265.155 64.8251 270.494 65.5836C268.351 62.5956 266.698 61.6983 266.199 57.739C271.196 49.6908 280.969 63.6132 292.516 54.492C294.271 39.3855 258.393 39.3392 248.001 41.3837C242.893 42.3827 235.826 45.1117 231.614 41.7814C233.499 39.3392 233.6 39.4225 236.039 37.6926C249.581 28.0718 227.347 24.1865 219.809 24.1865C214.442 24.1865 212.474 23.9275 207.708 23.3447C201.611 22.6139 178.306 26.0182 171.544 27.7203C165.29 29.2652 156.358 31.4669 155.961 39.071C160.57 42.688 162.371 42.6603 167.766 44.8157C170.02 45.7315 171.978 46.2311 173.844 47.9887C176.2 50.2181 175.885 51.1895 178.98 51.7908C177.225 42.9563 163.507 44.5012 158.741 38.1551C161.808 26.823 187.469 27.2948 196.318 25.6759C200.115 24.9913 203.727 24.9173 207.736 25.2318C218.525 26.0182 231.014 25.8609 238.32 31.5224C237.277 40.1996 227.771 36.3975 226.487 44.3162C231.125 47.7019 237.775 45.1025 243.244 44.0016C249.627 42.7065 256.148 41.4762 263.187 41.948Z" fill="#513D49"/>
<path fill-rule="evenodd" clip-rule="evenodd" d="M94.1445 11.2724C99.1973 13.8442 100.297 12.401 105.248 14.945C108.675 16.7026 110.956 19.1448 113.552 21.4483C116.748 23.5482 124.498 34.2421 125.57 38.0996L131.694 41.7999C136.017 43.6131 141.273 45.8148 144.71 48.516C145.338 53.7612 145.153 58.405 144.026 63.2802C147.453 58.6086 148.82 45.2875 149.605 38.9414C150.575 31.2541 154.446 20.4584 154.501 13.9737C143.583 13.0856 134.447 9.54255 123.916 6.39729C116.554 4.21412 98.0149 4.55639 94.1445 11.2724ZM139.361 88.0444L140.987 86.185V85.2692L141.901 84.3534L146.612 68.4884C147.813 64.4735 148.368 67.073 148.894 62.6141C149.421 58.2385 149.448 59.5244 150.307 55.9258C152.247 48.0627 151.065 45.7778 155.102 42.7065L151.591 39.774L151.407 37.045C149.439 39.8203 147.712 57.1562 145.726 62.9749C143.656 69.0342 139.805 81.7539 139.361 88.0444ZM144.201 64.0017C142.031 66.1294 138.594 78.951 138.465 82.827L144.201 64.0017Z" fill="#FCE1C8"/>
<path fill-rule="evenodd" clip-rule="evenodd" d="M403.881 52.6233C400.897 51.7353 400.685 52.9934 398.2 54.9083C396.546 56.1664 394.117 58.3218 392.62 59.2654C393.803 56.7769 395.004 55.121 394.607 52.6048C388.297 50.4586 383.189 63.0397 374.968 62.8547C380.279 55.8518 379.993 55.0655 377.638 51.1895C369.915 50.6159 367.19 58.4513 361.094 59.1359C363.08 56.6752 365.934 53.9924 366.516 51.1617C362.535 51.0322 358.997 52.2348 356.484 55.4356L361.879 53.7057C359.422 58.3958 352.161 65.4264 351.958 70.3293C354.886 69.4412 354.526 68.0443 356.641 65.0841C358.424 62.6234 359.883 61.7816 362.821 60.4125C361.094 64.5013 360.752 65.0008 362.11 69.4319C367.319 69.691 369.915 67.7298 373.425 64.1128C380.446 67.5448 385.101 56.0369 391.438 55.7778C390.44 60.764 384.418 62.9657 383.402 68.4976C386.755 67.7853 394.764 60.1812 398.846 57.6372C396.648 62.3829 393.378 63.9277 393.535 69.4134C398.615 68.5254 406.495 60.7825 411.234 57.6372C413.46 59.2654 405.839 66.1109 411.206 68.4144C415.686 68.4976 421.284 65.6576 425.08 63.1692L422.097 70.246C426.364 69.617 426.78 60.9398 438.696 59.5984C437.514 61.7261 436.839 63.6132 437.181 65.9167C437.311 66.8602 437.652 67.147 438.465 67.3598C445.8 69.3764 449.91 64.0573 455.333 63.3172C454.806 66.518 455.831 70.0332 459.73 69.4782C465.512 68.6919 466.981 60.5605 473.558 56.5734C472.671 59.2469 471.803 61.9203 470.916 64.5938C470.657 66.4255 471.313 67.4245 472.957 67.5263C480.209 68.2108 480.477 66.925 485.502 63.1692C485.289 65.2414 485.945 66.74 487.672 67.5448C493.926 68.0998 493.667 66.2589 497.778 62.8547C498.018 63.7705 498.018 64.085 498.12 64.3533C499.404 71.9574 508.152 67.9981 511.994 64.8806C517.389 60.5235 514.849 62.4661 520.058 57.8037C514.849 58.4606 509.842 67.295 503.561 66.4532C502.147 66.2682 501.99 65.8982 501.778 64.9083C500.309 58.3033 506.018 56.5919 505.916 51.0599C499.081 56.3051 494.841 67.7391 489.206 66.1109C487.922 61.6521 493.242 58.0905 497.796 52.1608C490.905 52.059 486.351 65.5651 475.747 65.7224C474.62 65.7501 474.361 65.4634 474.361 64.5198C474.389 58.1183 477.031 56.9434 479.202 52.0868C476.117 52.6603 474.62 53.6872 471.978 55.8611C471.72 54.8158 472.218 52.0313 469.281 50.9582C465.715 50.9859 463.443 52.6603 463.859 57.2765C464.644 58.7936 466.085 59.3209 468.182 58.8768C466.584 61.4948 463.6 66.1942 460.533 67.036C458.649 67.5633 458.547 66.8232 458.205 65.2229C456.219 55.3153 468.468 49.2283 469.964 41.8832C466.011 41.7537 465.096 43.2708 462.741 47.3411C461.272 49.8573 458.787 53.5577 457.531 56.0184C455.148 61.8648 456.718 60.0794 450.723 63.0767C447.084 64.8621 445.412 65.6946 441.772 65.7501C439.629 65.8057 439.916 64.9361 440.202 63.9648C441.56 59.5614 445.181 55.6021 445.966 51.1432C437.172 51.4577 445.024 58.4883 430.383 60.0332C432.055 57.3042 433.865 54.3995 433.967 51.1432C427.87 51.3282 429.357 58.3033 425.745 61.1895C423.307 63.1599 414.901 66.4625 412.527 66.0924C411.372 61.8741 416.25 56.8879 416.425 52.0868C410.587 53.1136 402.255 61.9943 397.341 65.8242C399.789 59.3301 405.082 56.7399 403.881 52.6233ZM465.494 53.8259C466.362 52.9563 467.433 52.4846 468.976 52.8546C470.103 54.0572 470.473 55.2413 469.161 56.4254C467.249 57.3135 466.205 57.369 465.734 56.6659C465.355 56.1386 464.884 55.0563 465.494 53.8259ZM373.342 62.0591C371.587 57.5262 373.157 54.899 375.956 52.7991C378.663 56.2959 375.31 59.2839 373.342 62.0591ZM372.04 62.7437C369.287 64.9176 367.486 66.5735 364.031 66.6012C363.772 61.8278 367.698 55.6113 372.123 54.9823C370.386 58.7288 370.359 59.0433 372.04 62.7437Z" fill="#513D49"/>
<path fill-rule="evenodd" clip-rule="evenodd" d="M578.032 56.8139C574.263 64.8621 571.954 67.0637 568.139 75.1952C566.698 78.7104 565.598 79.8113 567.326 82.2535C570.097 81.4949 569.894 79.3672 571.436 76.666L582.484 55.343L588.923 52.8546C596.285 62.3459 610.575 90.2739 629.742 86.9714C635.322 86 642.758 80.1813 642.601 74.2516C640.217 76.1387 632.44 93.2064 612.699 78.4514C602.15 70.5328 598.714 63.2432 591.879 51.9665C599.573 45.9073 610.944 42.0589 619.055 34.6306C626.62 27.711 638.508 20.1254 637.04 7.80341C636.67 6.30478 635.469 4.41763 633.77 4.60264C620.071 6.36029 598.188 29.3022 595.878 41.6334C598.806 40.7176 598.289 38.3864 602.557 31.9849C607.711 24.2235 619.84 11.9477 629.844 9.71831C631.968 9.24652 631.858 9.11701 631.673 11.2169C630.075 29.5242 604.7 42.0312 591.112 50.2921L587.131 46.5456C590.327 41.3004 593.052 36.157 596.035 30.995C599.148 25.5926 603.73 20.1902 601.587 13.7424C597.689 12.512 593.892 16.2031 590.484 18.0717C586.9 20.0607 580.535 21.9756 578.337 23.6314C584.119 26.3049 594.677 16.3974 598.816 17.4427C600.442 22.3456 595.703 27.1745 593.32 31.0783C591.306 34.3808 587.768 40.9859 585.329 43.4003C581.403 42.9008 576.794 38.5252 568.915 38.0534C563.049 37.7111 555.714 40.6528 554.144 46.4161C554.44 59.0711 575.649 59.0156 578.032 56.8139ZM583.713 52.8823L586.253 49.4226C588.664 52.7806 586.382 52.0405 583.713 52.8823ZM579.658 54.4827C572.379 55.9536 562.088 57.1562 556.851 50.2089C559.576 40.0885 578.872 42.9933 583.482 46.6381L579.658 54.4827Z" fill="#513D49"/>
<path fill-rule="evenodd" clip-rule="evenodd" d="M362.793 134.307L393.092 130.265C398.856 128.924 406.763 125.047 420.296 122.346C433.542 119.673 444.774 117.573 458.104 117.656C462.344 117.684 463.129 117.184 466.454 116.787C482.139 114.927 514.867 118.886 531.079 121.347C535.817 122.078 541.295 123.549 545.895 124.048L592.867 128.85C597.818 129.506 603.342 130.607 608.45 130.607C595.546 124.835 503.163 114.039 483.996 113.484C460.478 112.772 441.948 113.299 419.187 119.386L362.793 134.307Z" fill="#FCE1C8"/>
<path fill-rule="evenodd" clip-rule="evenodd" d="M72.8248 89.0435L74.7646 91.5875C73.5083 90.9307 73.6099 92.161 75.1064 89.9131L75.3188 90.8289L73.0649 88.0537H72.9079L72.8248 89.0435L70.8572 91.7448L70.7279 95.2878C65.3333 94.5755 71.0974 95.5468 67.0053 95.7873L66.4326 94.4275C62.9778 93.8539 65.1209 93.6134 62.1649 93.9557C62.8947 97.2305 62.7192 94.1407 63.8646 96.8697C64.9638 99.4414 63.1071 97.0547 64.6775 100.329C68.4001 98.285 70.8572 99.0159 75.3373 98.7568C82.875 98.285 76.6213 96.7864 83.2722 95.6856C94.9758 93.7984 133.809 96.2591 148.497 94.3257L153.236 73.2432C151.453 65.5559 148.626 67.295 152.035 58.1368L157.771 54.751L159.739 47.6742L155.101 42.7158C151.065 45.787 152.247 48.0627 150.307 55.9351C149.439 59.5244 149.421 58.2385 148.894 62.6234C148.368 67.0822 147.823 64.4828 146.612 68.4976C148.552 72.0684 143.703 88.581 141.532 92.7531C131.001 93.8539 118.827 92.8826 108.037 93.4654C90.1817 94.409 92.9252 92.7068 75.8546 95.5098C79.8082 90.2924 87.3273 91.68 93.5256 91.495C90.3018 90.9214 84.4176 88.7198 81.5078 89.3488C78.7551 89.9779 75.7992 94.3072 72.289 96.0371L72.8248 89.0435Z" fill="#6CC4C7"/>
<path fill-rule="evenodd" clip-rule="evenodd" d="M763.859 117.601C760.293 115.427 757.55 115.972 752.682 112.17C756.607 99.0899 806.203 95.075 821.86 97.5357C828.908 98.6366 839.355 98.2203 847.706 98.2203C840.427 94.335 800.365 94.9178 790.601 95.8891C779.285 97.0177 748.054 99.6912 745.957 113.068C751.813 116.972 756.894 117.129 763.859 117.601Z" fill="#6CC4C7"/>
<path fill-rule="evenodd" clip-rule="evenodd" d="M141.901 84.3534C142.299 85.6948 142.474 85.2692 140.987 85.2692V86.185L140.303 90.6994L137.551 90.5421C127.076 91.6985 117.94 90.4866 108.019 90.4589C97.2298 90.4034 90.8653 87.8409 81.203 86.9714L78.2471 87.1286L75.1064 89.9039C73.61 92.161 73.5084 90.9307 74.7646 91.5782L72.8248 89.0343L72.2983 96.0093C75.8085 94.2795 78.7644 89.9501 81.5171 89.321C84.4269 88.692 90.311 90.8937 93.5349 91.4672C87.3274 91.6522 79.8175 90.2646 75.8639 95.4821C92.9344 92.6791 90.1909 94.3812 108.047 93.4376C118.836 92.8641 131.011 93.8354 141.541 92.7253C143.712 88.5532 148.562 72.0314 146.622 68.4698L141.901 84.3534ZM73.8224 86.4718L73.065 88.0444L75.3189 90.8197C75.8177 86.2035 76.2057 87.7484 77.2864 84.0296L73.8224 86.4718Z" fill="#513D49"/>
<path fill-rule="evenodd" clip-rule="evenodd" d="M197.593 79.7095L173.585 78.3681C178.61 75.2229 189.871 77.4986 196.679 76.296C192.226 72.9657 189.187 74.2793 183.719 74.1961C178.195 74.1128 176.384 71.7816 171.987 76.2405C170.288 90.6439 197.565 96.4904 197.593 79.7095Z" fill="#FCE1C8"/>
<path fill-rule="evenodd" clip-rule="evenodd" d="M75.3096 90.8289L75.0972 89.9131L78.2379 87.1379C82.4039 81.8649 87.6137 81.5782 94.2369 81.5782C89.1841 79.3487 84.8887 81.5504 80.2054 82.42L81.0183 80.6068L82.6164 79.6078C95.0775 77.4061 94.7172 79.58 105.839 82.6513C111.76 84.3071 122.706 86.8233 127.417 89.0528L114.032 86.5921L111.677 86.3793C112.305 87.2211 110.578 87.5357 114.032 86.5921C105.081 93.2804 86.3852 83.6781 81.1938 86.9899C90.856 87.8594 97.2205 90.4219 108.01 90.4774C117.931 90.5051 127.076 91.7077 137.541 90.5607L137.357 89.9039L138.715 83.4283C137.2 85.186 137.431 85.2877 136.387 87.9889C133.93 86.8049 132.664 87.1471 129.764 86.6013L108.767 81.7262C101.932 79.025 98.3198 71.3653 82.6071 79.6263L81.0091 80.6253C78.8106 81.3377 75.014 84.2701 73.804 86.4996L77.2587 84.0574C76.2057 87.7577 75.8085 86.2128 75.3096 90.8289Z" fill="#FCE1C8"/>
<path fill-rule="evenodd" clip-rule="evenodd" d="M35.9587 132.679C39.0255 128.563 41.0947 119.645 45.1775 116.713C42.2955 109.737 32.7626 106.194 29.234 113.669C26.0656 120.357 29.1785 129.978 35.9587 132.679Z" fill="#6CC4C7"/>
<path fill-rule="evenodd" clip-rule="evenodd" d="M211.449 65.8334L206.84 61.8463L201.602 61.2173C196.309 59.1451 188.513 60.8195 182.906 61.4578C186.074 65.5004 196.808 64.529 202.544 66.4439C204.955 71.3191 204.586 73.3635 202.572 77.8779V78.7937L201.288 84.6402L202.415 85.371L201.547 87.1286C204.872 86.0833 207.486 82.4847 209.426 79.5523C211.911 75.7779 215.449 72.9195 213.306 69.1452C209.269 72.9195 206.914 80.9214 202.572 84.4089C204.687 78.1369 211.107 72.8362 211.449 65.8334Z" fill="#6CC4C7"/>
<path fill-rule="evenodd" clip-rule="evenodd" d="M386.468 125.963C374.552 125.963 345.205 137.342 310.482 128.563L282.964 122.79C288.904 127.379 327.553 135.27 336.171 135.399C346.221 135.538 377.905 130.219 386.468 125.963Z" fill="#FCE1C8"/>
<path fill-rule="evenodd" clip-rule="evenodd" d="M167.35 40.6343L182.278 46.8231C183.275 50.2366 182.176 49.367 183.746 52.1238C188.799 43.2893 175.498 44.6769 171.572 39.9313C178.952 30.3845 208.724 28.9969 217.998 36.157C217.657 43.2153 211.662 43.058 210.775 49.8758C213.186 52.318 211.486 51.3467 214.156 51.7352C208.733 44.2051 223.532 43.8721 221.693 37.1005C218.682 33.058 214.442 32.2994 209.86 31.3836C200.558 29.5149 166.251 29.3114 167.35 40.6343Z" fill="#513D49"/>
<path fill-rule="evenodd" clip-rule="evenodd" d="M201.602 61.2265L206.84 61.8556L205.953 60.5697C209.749 60.1719 208.124 59.6539 210.849 61.8278L211.449 65.8426C211.107 72.8455 204.697 78.1369 202.572 84.4089C206.923 80.9214 209.278 72.9195 213.306 69.1452C214.091 62.1701 214.119 59.7556 206.156 58.2108C199.163 56.8509 147.398 55.0655 154.492 64.7696C157.088 62.3829 155.249 64.9823 155.72 61.8371C157.42 61.9388 155.508 60.3662 157.633 62.9934C158.03 61.208 155.979 59.2931 169.89 59.3764L201.602 61.2265ZM201.547 87.1286L202.415 85.371L201.288 84.6402L200.189 86.1851L201.547 87.1286Z" fill="#513D49"/>
<path fill-rule="evenodd" clip-rule="evenodd" d="M35.0165 92.6328L26.2688 92.6606C21.9457 94.6772 16.9483 94.1592 12.0526 94.6032C6.87042 95.1028 8.51466 95.7318 7.7572 96.3609L52.6136 96.2314C58.2391 96.1019 60.5484 97.175 61.7031 92.013L35.0165 92.6328Z" fill="#6CC4C7"/>
<path fill-rule="evenodd" clip-rule="evenodd" d="M154.944 90.8289C163.581 102.004 189.196 101.449 202.369 97.434C206.951 96.0464 210.461 94.7328 213.472 90.8289C210.59 87.3414 202.138 86.7401 198.702 89.2841C202.757 91.1712 207.366 88.211 211.292 91.1435C205.214 99.0066 167.147 102.207 157.716 90.8289C161.595 87.7577 160.986 90.0426 164.496 88.0537C160.829 85.926 157.06 88.0722 154.944 90.8289Z" fill="#513D49"/>
<path fill-rule="evenodd" clip-rule="evenodd" d="M846.052 62.2996C852.361 77.2211 885.302 50.9489 893.523 63.4282L895.093 61.0137C889.957 54.4365 877.94 59.5151 871.002 60.2829C864.121 61.0137 852.343 63.5022 846.052 62.2996Z" fill="#6CC4C7"/>
<path fill-rule="evenodd" clip-rule="evenodd" d="M263.187 51.7537C270.965 51.8092 285.809 57.628 290.548 52.6233C290.308 44.0201 270.226 42.2347 263.187 41.9479C267.113 44.9359 269.681 42.7898 274.836 44.9082C278.688 46.4808 282.715 47.3966 283.269 50.8102C278.401 54.3532 269.265 48.7657 263.187 51.7537Z" fill="#FCE1C8"/>
<path fill-rule="evenodd" clip-rule="evenodd" d="M89.5351 20.3937L90.4496 17.8497L89.5351 20.3937ZM77.5913 60.3014L76.5936 64.9176C75.3928 69.8205 71.1713 84.9269 71.2822 88.8863L72.9079 88.0445C73.7208 78.7104 89.6644 24.8526 89.2949 20.5972C85.5261 25.6666 79.5588 56.8972 77.5913 60.3014Z" fill="#513D49"/>
<path fill-rule="evenodd" clip-rule="evenodd" d="M151.277 34.3993L155.489 30.699C157.189 24.1217 159.628 16.4899 159.101 9.74608L158.972 9.17253L157.817 8.48798C154.178 11.7165 146.769 10.4029 142.077 10.7914C145.716 12.5491 151.009 12.8358 155.563 13.5944C156.385 18.1088 152.293 29.0709 151.277 34.3993Z" fill="#FCE1C8"/>
<path fill-rule="evenodd" clip-rule="evenodd" d="M257.636 136.139L259.308 134.853C259.908 134.381 260.333 133.882 260.351 132.254C260.379 131.07 260.222 130.496 259.908 129.479C259.409 127.823 259.123 127.934 260.324 126.648C264.905 121.902 271.954 122.744 278.29 124.132C272.009 120.246 257.626 115.584 253.516 125.575C252.989 126.833 253.387 128.063 254.513 128.822L258.153 131.125L257.636 136.139Z" fill="#FCE1C8"/>
<path fill-rule="evenodd" clip-rule="evenodd" d="M82.6163 79.6077L81.0183 80.6068L80.2054 82.42C84.8887 81.5504 89.1841 79.3487 94.2369 81.5782L111.677 86.3793L114.032 86.5921L127.417 89.0528C122.706 86.8233 111.76 84.3071 105.839 82.6512C94.7172 79.58 95.0867 77.4061 82.6163 79.6077Z" fill="#513D49"/>
<path fill-rule="evenodd" clip-rule="evenodd" d="M12.5514 111.181L11.0087 112.096L7.05518 125.834L10.0943 127.536L15.6182 113.956L14.833 109.284C14.5743 109.284 13.706 107.582 13.3643 108.396L13.2349 109.312L12.5514 111.181Z" fill="#6CC4C7"/>
<path fill-rule="evenodd" clip-rule="evenodd" d="M4.98596 123.188L8.22826 112.642C4.58876 113.614 5.16147 114.474 2.54731 112.725L9.17046 110.468C9.17046 109.025 8.77326 109.312 10.085 109.312V106.426C-0.122271 104.594 -0.251593 119.275 4.98596 123.188Z" fill="#6CC4C7"/>
<path fill-rule="evenodd" clip-rule="evenodd" d="M197.593 79.7095L202.572 78.7937V77.8779L196.679 76.3052C189.871 77.5078 178.61 75.2322 173.585 78.3774L197.593 79.7095Z" fill="#513D49"/>
<path fill-rule="evenodd" clip-rule="evenodd" d="M500.808 46.1663C500.965 47.2949 502.036 47.8222 503.607 47.9979C507.329 47.5539 516.253 43.095 517.038 39.1634C511.412 40.107 511.255 45.0932 504.891 45.3522C503.422 45.4077 503.477 45.565 503.45 44.1681C503.422 40.2643 504.891 38.8212 503.422 36.1477C499.164 37.6001 500.235 41.2449 500.808 46.1663Z" fill="#513D49"/>
<path fill-rule="evenodd" clip-rule="evenodd" d="M824.816 46.0368C835.106 41.3929 843.069 40.8194 851.604 48.5252C848.861 36.9155 827.384 38.6454 824.816 46.0368Z" fill="#6CC4C7"/>
<path fill-rule="evenodd" clip-rule="evenodd" d="M160.182 26.9987L163.849 25.1393L166.602 9.6443L158.981 9.17252L159.111 9.74606L162.177 11.5315C162.722 15.204 161.327 23.0116 160.182 26.9987Z" fill="#A1D4CF"/>
<path fill-rule="evenodd" clip-rule="evenodd" d="M157.873 26.0551C157.873 23.983 159.027 25.8424 158.473 26.0551C158.473 26.0551 157.873 28.4973 157.873 26.0551ZM158.815 22.3641C158.815 20.2919 159.942 22.1513 159.388 22.3641C159.397 22.3641 158.815 24.797 158.815 22.3641ZM155.49 30.699C157.402 29.2282 157.817 28.5251 160.173 26.9987C161.327 23.0116 162.713 15.1948 162.159 11.5315L159.092 9.74606C159.628 16.4899 157.189 24.1217 155.49 30.699Z" fill="#513D49"/>
<path fill-rule="evenodd" clip-rule="evenodd" d="M225.665 71.8186C228.621 80.9954 214.405 78.3497 210.378 80.6531C213.417 82.383 217.869 81.1526 221.268 80.3108C225.481 79.2377 226.977 77.8224 229.176 74.1776C225.591 68.2016 223.31 69.1452 216.243 69.6909L225.665 71.8186Z" fill="#513D49"/>
<path fill-rule="evenodd" clip-rule="evenodd" d="M25.8808 41.5594C31.9035 42.2162 51.1264 46.3606 55.1815 43.3171C54.0823 42.8175 42.9236 42.2162 39.7368 41.6889C36.0418 41.0876 27.8668 39.0617 25.8808 41.5594Z" fill="#513D49"/>
<path fill-rule="evenodd" clip-rule="evenodd" d="M794.573 47.1191C796.559 47.6927 798.97 47.1191 801.381 46.0923C807.089 43.6778 805.861 42.8175 806.092 41.8739C802.425 43.8443 798.157 46.5641 795.857 44.8897C794.129 42.5585 795.958 39.33 796.014 35.4724C791.146 36.6565 791.986 45.1765 794.573 47.1191Z" fill="#030404"/>
<path fill-rule="evenodd" clip-rule="evenodd" d="M57.1121 66.5179C52.0316 62.7436 49.1773 66.4347 36.8178 65.0008C35.0073 64.7603 33.0767 65.0563 31.3216 64.9176C27.3403 64.6585 27.2849 63.7612 22.2598 64.159C22.4168 64.2608 22.657 64.2608 22.7032 64.4735L37.7877 66.777C44.1799 66.7307 50.8585 67.2303 57.1121 66.5179Z" fill="#513D49"/>
<path fill-rule="evenodd" clip-rule="evenodd" d="M170.648 89.7281C169.992 86.4533 165.512 82.7808 163.24 79.8945C160.856 76.9065 158.787 70.69 156.275 68.7011C157.014 74.4643 165.752 88.7568 170.648 89.7281Z" fill="#513D49"/>
<path fill-rule="evenodd" clip-rule="evenodd" d="M40.4111 53.8259C43.524 55.6113 51.0709 55.1858 55.1538 54.5567C64.2895 53.0858 62.1742 54.64 69.1391 55.4263C64.3172 49.3208 54.3225 54.6955 43.4779 53.5669C40.2817 53.2246 43.1361 52.4105 40.4111 53.8259Z" fill="#513D49"/>
<path fill-rule="evenodd" clip-rule="evenodd" d="M396.131 47.4336C398.144 48.5345 415.769 49.034 417.284 47.9609L400.786 45.3892C393.951 45.3337 397.331 46.194 396.131 47.4336Z" fill="#513D49"/>
<path fill-rule="evenodd" clip-rule="evenodd" d="M113.543 21.439C108.721 21.439 94.4586 20.3382 92.3063 26.0551C102.283 21.4945 108.278 25.0838 113.543 21.439Z" fill="#513D49"/>
<path fill-rule="evenodd" clip-rule="evenodd" d="M86.9948 50.0239C93.387 47.0081 100.666 47.8962 107.917 47.1099C103.65 44.7324 88.1957 45.1765 86.9948 50.0239Z" fill="#513D49"/>
<path fill-rule="evenodd" clip-rule="evenodd" d="M172.514 85.112C171.96 82.309 168.773 79.765 167.119 76.9343C164.976 73.1878 165.022 69.432 161.725 68.7751C163.554 73.3913 167.378 83.4838 172.514 85.112Z" fill="#513D49"/>
<path fill-rule="evenodd" clip-rule="evenodd" d="M158.972 9.17251L166.593 9.6443L163.84 25.1393L168.819 8.64522C163.711 6.78581 162.427 7.04483 158.972 9.17251Z" fill="#513D49"/>
<path fill-rule="evenodd" clip-rule="evenodd" d="M91.4472 36.9433C93.6734 36.6842 96.5 35.8702 98.9387 35.5002C101.821 35.0561 104.906 35.4169 107.917 35.0839C104.934 32.8544 102.994 33.1135 99.1234 33.8258C96.4169 34.3438 93.4055 34.4456 91.4472 36.9433Z" fill="#513D49"/>
<path fill-rule="evenodd" clip-rule="evenodd" d="M135.565 54.1404C133.107 52.3088 121.395 48.4512 118.309 48.4235C120.72 50.4956 133.422 55.084 135.565 54.1404Z" fill="#513D49"/>
<path fill-rule="evenodd" clip-rule="evenodd" d="M230.617 72.2349C230.801 64.8158 221.795 65.5744 216.243 65.9907L224.335 67.7483C229.859 68.6456 227.476 69.7465 230.617 72.2349Z" fill="#513D49"/>
<path fill-rule="evenodd" clip-rule="evenodd" d="M86.8378 60.0424C88.9346 59.8019 91.3179 58.9416 93.387 58.5993C96.1859 58.183 99.382 58.516 102.393 58.2015C98.6153 55.3985 89.3226 56.9249 86.8378 60.0424Z" fill="#513D49"/>
<path fill-rule="evenodd" clip-rule="evenodd" d="M41.9537 32.5307C41.2424 29.9867 41.1131 30.8748 37.7877 30.699C33.7048 30.329 33.1783 28.6824 29.5665 31.3836C32.8734 31.7444 38.9423 32.4844 41.9537 32.5307Z" fill="#513D49"/>
<path fill-rule="evenodd" clip-rule="evenodd" d="M9.17052 110.468L2.54736 112.725C5.16152 114.483 4.58881 113.614 8.22831 112.642L10.9995 112.087C10.9995 110.616 10.7131 111.171 12.5421 111.171L13.2257 109.312H10.085L9.17052 110.468Z" fill="#513D49"/>
<path fill-rule="evenodd" clip-rule="evenodd" d="M212.548 78.1924C215.717 79.6633 223.568 77.3043 224.15 73.3173C222.811 74.1036 220.927 75.4912 219.014 76.2035C215.347 77.4801 215.532 75.9815 212.548 78.1924Z" fill="#513D49"/>
<path fill-rule="evenodd" clip-rule="evenodd" d="M131.685 41.7907L125.561 38.0904C121.367 37.0913 121.108 35.9627 116.397 36.4622L131.685 41.7907Z" fill="#513D49"/>
<path fill-rule="evenodd" clip-rule="evenodd" d="M168.976 62.1423C171.304 63.641 175.839 63.5855 178.352 62.1423C175.839 60.6992 171.304 60.6437 168.976 62.1423Z" fill="#513D49"/>
<path fill-rule="evenodd" clip-rule="evenodd" d="M125.561 65.8334C128.757 67.3043 131.999 67.8501 135.639 67.4615C133.209 65.6576 127.916 64.344 125.561 65.8334Z" fill="#513D49"/>
<path fill-rule="evenodd" clip-rule="evenodd" d="M157.771 54.7417C161.18 54.5012 160.127 51.541 161.411 48.5807L159.739 47.6649L157.771 54.7417Z" fill="#030404"/>
<path fill-rule="evenodd" clip-rule="evenodd" d="M25.7977 52.8823C27.8668 54.2237 31.922 55.1673 34.259 53.8259C32.1622 52.5956 27.5528 51.7815 25.7977 52.8823Z" fill="#513D49"/>
<path fill-rule="evenodd" clip-rule="evenodd" d="M59.052 66.7585L66.2017 69.5614C65.7029 67.5725 67.3009 68.2478 63.606 66.7862C60.4376 65.5004 61.0195 65.5466 59.052 66.7585Z" fill="#513D49"/>
<path fill-rule="evenodd" clip-rule="evenodd" d="M116.24 61.9018C114.614 59.8297 114.171 59.9129 111.843 59.5151C113.229 61.5873 113.598 61.5873 116.24 61.9018Z" fill="#513D49"/>
<path fill-rule="evenodd" clip-rule="evenodd" d="M88.5929 38.0904C89.4335 38.9322 91.6597 36.934 89.7198 37.5631C89.6921 37.5723 87.3366 36.8323 88.5929 38.0904Z" fill="#513D49"/>
<path fill-rule="evenodd" clip-rule="evenodd" d="M117.155 48.9508L114.855 47.1376C115.852 49.478 114.799 48.664 117.155 48.9508Z" fill="#030404"/>
<path fill-rule="evenodd" clip-rule="evenodd" d="M756.321 124.002C759.36 123.345 757.347 124.761 758.307 122.272L756.321 124.002Z" fill="#CAE5DB"/>
<path fill-rule="evenodd" clip-rule="evenodd" d="M877.478 80.6531C877.561 80.7364 877.737 80.2553 877.737 80.3663C877.737 80.4218 877.839 80.2646 877.839 80.2646C877.82 80.2831 876.221 79.395 877.478 80.6531Z" fill="#CAE5DB"/>
<path fill-rule="evenodd" clip-rule="evenodd" d="M45.1775 116.713C48.9741 124.844 45.9904 137.48 35.9587 132.679C29.1785 129.978 26.0655 120.357 29.2247 113.669C32.7626 106.194 42.2955 109.737 45.1775 116.713ZM944.143 64.1868C989.203 34.7416 960.512 10.9024 931.682 47.9517C924.034 44.8342 923.831 41.3466 913.827 39.0062C911.628 38.3494 906.705 40.7083 905.421 43.8813C902.779 55.5003 915.683 65.3061 926.26 72.9102C918.196 79.4135 888.553 84.4182 885.597 75.2414C885.653 70.727 893.791 68.4976 897.874 63.1229C898.659 61.4208 897.846 58.1645 893.865 55.8888C887.269 52.7158 859.797 62.8084 850.108 58.7751C849.295 58.4328 847.807 58.2015 848.066 57.2024C852.177 52.6881 852.546 51.7722 851.604 48.5252C843.069 40.8193 835.106 41.3929 824.816 46.0368C815.098 50.6529 806.803 66.3052 795.229 66.6475C793.917 66.6752 793.603 66.8325 793.501 65.2321C793.003 56.4439 797.926 56.0831 798.767 51.2264C792.716 52.2995 791.174 63.8167 783.553 64.6493C782.37 64.7511 782.453 64.233 782.481 63.678C782.638 57.517 788.716 55.8333 789.529 51.2264C784.319 52.1423 777.484 64.6308 768.69 65.6206C766.833 65.8334 766.75 65.3801 766.75 64.1497C766.75 58.405 770.787 57.1192 772.089 52.2718C768.579 52.0313 768.053 53.1876 764.625 54.7325C764.542 53.1876 764.311 52.2903 762.741 51.2172C759.914 50.1441 755.619 52.5586 755.776 57.3227C756.561 59.0526 758.529 58.6363 760.884 58.6085C759.074 61.7538 755.933 66.3422 751.795 66.2959C750.511 66.2959 750.455 66.2404 750.298 65.0378C749.199 56.7214 761.032 44.4826 761.928 41.1709C755.434 40.7268 753.107 51.2172 750.354 56.0091C747.814 60.4402 739.565 64.3255 733.699 64.6863C732.184 64.7881 731.731 64.1312 732.027 63.0304C733.339 57.554 736.082 55.1673 737.006 51.3375C732.452 51.0229 732.295 54.0664 730.327 58.1275L722.448 59.8852L726.143 52.3088C721.238 52.9841 716.203 64.3718 705.71 65.6761C704.869 65.7779 703.927 66.0184 703.04 65.6761C702.2 64.8621 701.969 63.2617 702.015 62.0313C702.643 58.8306 704.269 53.2986 708.407 51.8C711.077 56.4901 706.523 52.8453 710.236 57.702L712.25 51.2819C704.842 45.2227 701.544 59.9869 695.595 62.7714C696.824 57.9702 704.842 50.2644 701.932 45.306C698.422 49.8943 697.978 56.1663 693.738 58.1553C694.653 54.1127 695.336 52.8083 692.399 51.7075C691.771 51.5225 690.57 52.0775 689.545 52.6511C682.635 56.6104 674.174 65.0286 668.179 66.3884C666.165 66.8325 666.082 66.6752 665.094 64.9731C661.556 58.9971 667.606 58.3958 668.502 52.1515C662.581 53.1969 662.064 64.714 654.803 65.6299C653.131 65.8426 653.103 65.8426 653.131 64.27C653.233 57.7112 659.283 57.3967 660.198 52.1515C653.861 53.0951 644.199 64.603 636.947 66.3607C634.647 66.9157 634.49 66.7585 634.749 64.4735C635.377 59.4874 639.746 57.2394 640.929 52.281C633.834 51.8092 639.072 58.2848 626.426 60.0979C627.137 56.0091 629.382 57.739 628.708 52.0775C624.385 53.1228 618.103 70.2738 618.103 70.2738C621.687 69.6447 622.085 66.7862 623.729 63.3542C627.581 62.6696 630.14 61.0693 633.336 60.4217C632.421 63.5114 632.153 67.1655 633.252 68.0536C639.876 70.3385 646.028 62.1238 651.847 59.5336C650.018 62.8639 649.251 65.0101 650.803 67.1377C653.103 69.1082 657.371 66.7215 660.65 63.1784C664.29 69.8667 665.943 71.1526 675.735 64.566C679.033 62.3366 686.155 55.9351 690.394 55.1303C691.392 54.9452 691.706 54.9452 691.706 56.3144C691.651 60.7732 689.323 63.5762 685.397 65.3061C683.014 66.3329 682.256 66.1479 681.157 65.2506L679.744 64.1775C678.903 66.9342 678.201 66.1942 680.03 67.5633C681.185 68.4051 682.201 68.6086 683.54 68.2478C688.048 67.0452 690.533 62.4569 694.487 60.616C694.2 61.9296 692.362 67.4338 691.845 68.6641C690.33 72.1239 687.863 73.937 690.976 76.111C692.205 74.0666 693.258 70.5235 694.376 68.4514C695.558 66.3052 697.489 64.2053 698.93 62.2071L700.214 65.6206C700.713 66.9342 701.341 68.6364 703.622 68.6364C709.719 68.6086 713.497 64.2053 718.439 61.4485L714.799 70.1812C719.594 69.4967 718.282 66.4347 720.896 63.5485C722.938 61.2635 726.632 60.5327 729.533 59.6446C726.605 74.4643 741.708 64.3625 747.943 60.4865C747.5 62.2441 746.003 68.1738 747.86 69.0341C748.857 69.4504 749.901 69.5337 751.102 69.0064C760.524 64.9916 761.023 58.0998 766.417 55.8981C764.69 60.0979 761.808 63.9462 765.42 67.0452C770.445 69.4042 775.027 64.1127 779.322 61.4115C778.953 64.1127 778.435 66.2867 779.821 67.443C782.149 68.0443 785.973 66.9435 790.453 63.2987C792.365 79.9223 814.017 56.3976 816.327 54.5937C821.564 50.4771 824.705 48.6177 830.626 45.8055C839.845 41.4299 852.177 47.3781 848.038 55.0378C846.967 57.0082 845.812 56.5826 844.713 58.8121C843.715 60.7547 844.528 61.6705 846.052 62.3274C852.334 63.5299 864.121 61.0415 871.002 60.3107C877.524 59.5799 888.387 55.3523 893.883 60.3939C894.456 60.9212 894.456 61.7538 894.123 62.2071L893.153 63.2339C889.098 68.8491 868.019 78.5439 892.424 82.346C901.772 83.7891 918.768 79.8298 928.274 74.0573C935.054 77.8594 997.849 91.3377 971.948 117.009C956.992 131.828 913.79 114.409 897.162 107.203C885.219 102.041 872.6 99.0436 859.853 96.4811L838.699 93.5949C835.032 93.4654 830.266 93.9927 826.737 93.5672C814.221 92.0963 792.956 92.7531 780.837 94.927C776.726 95.6578 774.085 95.186 770.103 96.1851C762.409 98.1278 740.433 104.677 737.92 113.123C741.061 117.268 745.042 118.942 750.068 119.469C755.675 120.043 761.586 119.867 765.854 123.216C759.573 131.449 734.429 134.048 724.064 135.196C703.04 137.499 689.942 135.168 671.458 135.251L623.23 129.932C607.647 127.258 591.546 125.473 576.258 122.383L530.118 114.936C522.238 114.021 513.934 113.123 506.082 112.18C498.434 111.292 486.758 112.152 479.534 111.023C467.674 109.136 440.516 111.967 429.838 114.354L386.478 126C377.915 130.246 346.231 135.575 336.181 135.436C328.273 135.334 298.557 128.017 288.599 124.418C284.618 123.003 280.609 122.346 276.083 121.301C267.048 119.173 257.941 116.787 251.465 124.058C250.892 124.742 250.495 125.029 250.597 125.973C250.726 127.388 252.038 128.702 254.162 130.034C255.105 130.663 255.077 130.478 254.532 131.689C251.049 139.294 237.822 138.137 230.94 137.036C215.809 134.576 213.029 123.817 198.471 121.458C184.513 119.173 180.975 119.414 168.911 118.655L138.484 116.74C134.29 116.481 128.11 117.971 123.926 118.812C91.5119 125.39 105.802 143.04 78.7829 133.993C71.0605 131.393 64.9823 127.591 60.0588 120.7C65.6843 118.47 72.6031 112.096 78.6258 111.421C80.2793 111.236 80.1685 112.18 80.2516 112.624C80.3809 113.669 80.2516 114.354 79.8821 116.454C79.0692 120.885 78.3672 119.21 81.2954 120.542C83.1521 117.184 83.2814 113.308 80.7966 110.524C80.2239 109.867 79.568 109.136 77.97 109.608C72.677 111.181 62.9132 117.453 59.2459 119.312C56.5764 112.411 55.3663 102.448 61.7308 97.2582C61.8324 97.4155 61.9894 97.4987 62.0171 97.7855L62.3866 99.3581C62.7561 100.644 62.1465 99.8299 63.3565 101.347C66.4695 102.392 74.7739 101.033 79.3833 101.033C83.2075 99.4044 79.4387 101.634 82.3946 97.5727C95.0959 96.0741 143.222 98.0168 149.901 95.7873L155.111 74.4921L153.254 73.2617L148.515 94.3442C133.828 96.2869 94.9943 93.8169 83.2907 95.7041C76.6398 96.8049 82.8935 98.3035 75.3558 98.7753C70.8757 99.0343 68.4186 98.3035 64.696 100.348C63.1256 97.0732 64.9823 99.4599 63.8831 96.8882C62.7284 94.1592 62.9132 97.2582 62.1834 93.9742C65.1393 93.6319 62.9963 93.8724 66.451 94.446L67.0238 95.8058C71.1067 95.5653 65.3518 94.6032 70.7464 95.3063L70.8757 91.7633C67.7073 89.9316 68.4186 90.1351 64.7514 89.7466C65.592 84.6309 70.2476 67.8778 72.9172 64.0202C73.573 56.0183 78.4411 44.0664 77.425 35.2041C74.6538 40.1625 75.8823 49.4411 72.9172 54.7417C72.8156 59.7464 69.6194 66.962 67.735 71.7909C65.7675 76.7955 65.2502 85.926 62.5252 89.6726C57.0013 90.3294 38.4343 90.5884 35.035 92.6606L61.7215 92.0315C60.5669 97.1934 58.2668 96.1204 52.632 96.2499L7.77565 96.3794C8.53311 95.7503 6.88887 95.1213 12.071 94.6217C16.9668 94.1777 21.9642 94.705 26.2872 92.6791C18.8789 92.6791 12.3574 92.5773 5.54946 93.3636C9.34599 86.2591 8.32065 82.4292 10.2605 75.2692C12.1449 68.3681 13.6691 63.2062 14.9253 55.8888L25.6591 19.5981L26.7306 11.2817L27.6451 10.2549C37.8339 7.60914 43.173 8.21044 53.5188 8.33995C62.3127 8.46946 69.019 6.5268 77.5266 4.88017L80.2978 4.59339L84.9626 4.85242C82.6348 11.0967 84.122 17.3594 79.8082 23.0487C75.753 22.5214 74.5429 20.6342 68.317 20.6065C63.4766 20.5787 60.4837 21.7628 55.6988 22.0218C63.5321 21.9941 71.8826 20.7915 79.2632 23.3354C78.9491 28.0533 77.037 30.6528 77.5912 35.3984C80.1315 31.3003 84.6578 8.9875 86.8101 5.71274C90.1355 6.31403 89.4058 6.71182 92.3063 8.51572L92.334 11.2724H94.1445C98.0242 4.55639 116.554 4.21411 123.916 6.39729C134.447 9.54255 143.583 13.0856 154.501 13.9737C154.446 20.4492 150.575 31.2541 149.605 38.9414C148.82 45.2875 147.462 58.6086 144.026 63.2802L144.211 64.011L138.474 82.8363L138.733 83.4098L137.375 89.8853L139.287 89.8021L139.37 88.0444C139.814 81.7539 143.666 69.0341 145.735 62.9749C147.721 57.1562 149.458 39.8203 151.416 37.045L151.287 34.3993C152.312 29.0801 156.395 18.118 155.582 13.6036C151.028 12.8451 145.735 12.5583 142.095 10.8007C146.779 10.4029 154.196 11.7165 157.836 8.49721C141.153 8.49721 142.566 11.0689 125.237 5.13919C114.448 1.43889 105.285 3.09477 95.3084 8.41396C97.0358 -6.35025 87.8724 2.7525 86.847 3.01152C82.1637 2.45647 84.9349 1.72566 80.113 2.66924C77.4157 3.19653 74.8755 3.74233 72.3629 4.24187C44.9096 9.80157 49.5191 3.32604 23.9409 9.40379C23.9409 26.8692 16.9483 38.4327 14.1494 51.4115C12.3204 59.8574 6.87039 87.8317 3.54496 93.5209L5.14302 96.7217C7.7387 101.551 5.77115 98.3498 19.2853 98.1925L46.129 98.2203C50.4243 98.2203 55.8466 97.4617 58.9873 97.5357C55.2185 104.668 51.1818 107.286 57.9158 119.904C54.692 121.005 51.9485 122.392 49.75 122.346C46.7109 117.314 47.182 112.772 40.642 109.266C32.6333 104.964 29.4833 110.764 25.4836 114.724C21.7887 112.864 22.2598 113.253 18.648 113.725L16.5788 109.922L16.4218 109.71C46.3784 97.3045 34.3329 110.182 49.8331 113.956C49.3343 109.312 52.2441 113.743 42.628 107.295C39.8014 105.38 36.8917 103.863 34.1944 101.837C29.0399 103.225 19.6918 106.083 15.2117 108.368L13.6413 107.11C12.4867 106.379 10.7593 103.65 5.73421 104.936C4.29319 105.306 2.98149 105.852 1.80835 107.508C-3.90031 115.612 5.21692 128.905 11.0272 129.664C20.6063 129.664 19.8211 124.659 20.4308 116.898C27.0539 114.594 25.4836 122.217 28.2363 127.258C29.9082 130.33 32.5594 133.133 35.8017 134.65C37.8985 135.677 41.1131 135.778 43.4963 134.28C46.9049 132.134 47.921 130.163 48.9925 125.288C53.2325 124.261 54.8305 123.475 58.7287 121.514C69.4162 134.918 89.7014 142.837 102.671 134.52C107.492 131.43 110.162 125.871 122.863 123.244C142.031 119.312 197.067 122.328 209.953 128.433C218.774 132.633 212.779 133.493 231.817 138.924C237.314 140.468 238.884 141.523 245.618 140.737C249.359 140.293 254.393 138.322 257.663 136.148C258.606 134.788 259.234 133.318 258.735 131.717C258.606 131.301 258.421 130.959 257.793 130.487L254.624 128.156C253.996 127.739 253.368 127.471 254.181 125.982C258.449 118.063 272.249 120.394 278.327 124.15L318.833 135.057C324.255 136.417 335.903 138.757 341.538 137.832C348.475 136.676 354.969 135.788 362.83 134.317L419.233 119.395C441.985 113.308 460.524 112.79 484.042 113.493C503.21 114.048 595.592 124.844 608.496 130.616C638.056 137.018 697.313 141.68 726.226 137.277C734.604 135.991 749.005 134.631 757.411 132.448C761.864 131.292 776.994 128.933 775.064 122.198C771.84 117.98 769.281 117.684 763.905 117.61C756.94 117.138 751.859 116.981 745.994 113.077C748.091 99.7004 779.331 97.0269 790.638 95.8983C800.402 94.927 840.464 94.3535 847.743 98.2295C866.753 98.2573 899.85 112.439 916.662 119.155C932.689 125.556 955.912 129.118 971.153 120.783C977.305 117.397 982.959 110.764 981.887 102.846C976.576 83.4191 946.905 79.1175 931.165 73.0027C935.867 70.246 939.608 67.147 944.143 64.1868ZM15.9784 113.9C18.3062 118.59 18.0475 124.705 17.2347 125.723C14.8514 128.526 12.4682 128.581 10.085 127.536C3.06462 124.15 -5.44294 105.223 8.95803 106.268C12.8377 106.564 14.8237 110.838 15.9784 113.9ZM932.883 69.5337L930.214 71.5041C922.177 70.5328 905.578 53.4374 911.647 45.491C917.383 37.3596 926.306 47.9794 931.728 49.8203C935.312 47.9332 956.946 26.2217 962.341 36.2587C963.181 42.9193 957.417 49.5798 953.02 53.6224C949.326 56.9712 937.964 66.7307 932.883 69.5337ZM761.845 56.3421C760.82 57.3689 758.122 57.3874 757.55 56.5826C757.291 53.7797 758.834 51.6797 762.316 52.5678C763.785 53.5391 763.388 55.0378 761.845 56.3421ZM88.482 3.95509C91.4934 1.93843 89.766 1.43889 93.5348 2.61373C94.5787 5.73124 93.5626 6.34179 93.0915 9.14477L88.482 3.95509Z" fill="#513D49"/>
</svg>
